<svg width="256" height="256" viewBox="0 0 256 256" fill="none" xmlns="http://www.w3.org/2000/svg">
<rect width="256" height="256" fill="white"/>
<rect width="256" height="256" fill="url(#paint0_radial)"/>
<path d="M78.7499 152.263C74.8091 143.063 72.2663 133.238 71.2012 123.054C71.1213 122.335 70.7618 121.682 70.1894 121.23C69.6169 120.79 68.898 120.591 68.1791 120.697C67.5001 120.79 61.3094 121.682 52.9087 123.799C47.9827 125.037 46.5582 128.166 46.1588 129.923C45.2402 133.877 47.4635 138.843 51.8436 142.544C54.3199 144.648 61.8685 148.921 74.2766 155.259C74.6893 155.472 74.9422 155.605 74.9955 155.631C75.4082 155.858 75.8609 155.977 76.3002 155.977C76.9392 155.977 77.5783 155.751 78.0709 155.298C78.9362 154.526 79.2025 153.301 78.7499 152.263Z" fill="white"/>
<path d="M205.44 115.069C202.391 112.912 197.798 111.901 193.737 111.009C192.606 110.756 191.514 110.516 190.569 110.276C189.517 76.6469 161.825 49.6075 127.943 49.6075C93.4078 49.6075 65.3167 77.6987 65.3034 112.234C65.3034 142.242 77.8179 170.746 98.7731 188.479C116.36 203.363 135.238 207.384 150.535 207.384C168.415 207.384 181.382 201.886 181.609 201.779C182.567 201.353 183.193 200.408 183.206 199.369C183.22 198.331 182.607 197.359 181.662 196.92C181.116 196.667 168.229 190.476 168.229 172.21C168.229 160.894 172.316 156.021 177.961 149.271C178.414 148.739 178.866 148.193 179.332 147.634C192.193 143.72 201.299 137.05 205.626 133.388C209.367 130.22 211.178 126.931 211.031 123.603C210.898 120.474 209.008 117.599 205.44 115.069Z" fill="white"/>
<path opacity="0.15" d="M205.44 115.159C202.391 113.002 197.798 111.99 193.737 111.098C192.606 110.845 191.514 110.606 190.569 110.366C189.517 76.7364 161.825 49.697 127.943 49.697C93.4078 49.697 65.3167 77.7882 65.3034 112.323C65.3034 142.331 77.8179 170.835 98.7731 188.568C116.36 203.453 135.238 207.473 150.535 207.473C168.415 207.473 181.382 201.975 181.609 201.869C182.567 201.442 183.193 200.497 183.206 199.459C183.22 198.42 182.607 197.448 181.662 197.009C181.116 196.756 168.229 190.565 168.229 172.3C168.229 160.983 172.316 156.111 177.961 149.361C178.414 148.828 178.866 148.282 179.332 147.723C192.193 143.809 201.299 137.139 205.626 133.478C209.367 130.309 211.178 127.021 211.031 123.693C210.898 120.564 209.008 117.688 205.44 115.159Z" fill="url(#paint1_radial)"/>
<path d="M74.2528 157.157C73.6003 157.157 72.9399 156.997 72.3395 156.672C72.2394 156.62 71.9833 156.488 71.595 156.292C58.4222 149.564 50.7171 145.185 48.0273 142.907C43.1361 138.752 40.6584 133.125 41.7231 128.562C42.2114 126.464 43.8886 122.726 49.6444 121.281C58.4342 119.071 64.9346 118.131 65.647 118.031C66.7238 117.883 67.8125 118.171 68.665 118.839C69.5216 119.508 70.066 120.496 70.1821 121.573C71.2828 132.04 73.8885 142.135 77.9312 151.577C78.6077 153.154 78.2034 154.987 76.9265 156.132C76.174 156.808 75.2174 157.157 74.2528 157.157ZM62.7411 126.62C60.0353 127.113 56.1527 127.897 51.5977 129.042C50.7411 129.258 49.6844 129.662 49.5203 130.375C49.2561 131.516 50.2248 134.265 53.2108 136.799C54.0113 137.476 56.8612 139.493 66.8879 144.816C65.0106 138.921 63.6257 132.841 62.7411 126.62Z" fill="black"/>
<path d="M151.528 210.816C136.486 210.816 115.989 206.998 96.8078 190.771C74.7531 172.111 61.5843 142.135 61.5803 110.586V110.582C61.5803 110.578 61.5803 110.578 61.5803 110.574C61.5803 110.57 61.5803 110.57 61.5803 110.566V110.562C61.5883 73.9893 91.3441 44.2375 127.924 44.2375C163.488 44.2375 192.608 72.3683 194.201 107.544C194.937 107.72 195.742 107.896 196.562 108.076C200.893 109.033 205.804 110.117 209.171 112.499C213.213 115.357 215.343 118.671 215.507 122.346C215.675 126.2 213.637 129.959 209.451 133.509C204.92 137.351 195.433 144.3 182.04 148.451C181.64 148.935 181.24 149.408 180.852 149.876C174.936 156.941 171.025 161.604 171.025 172.919C171.025 191.051 183.73 197.219 184.27 197.475C185.711 198.128 186.62 199.561 186.608 201.142C186.596 202.723 185.647 204.144 184.198 204.776C183.718 204.988 172.23 209.936 155.731 210.716C154.382 210.78 152.981 210.816 151.528 210.816ZM69.5857 110.574C69.5857 139.801 81.6977 167.496 101.979 184.659C117.265 197.596 135.225 203.672 155.347 202.723C162.948 202.363 169.392 201.03 173.915 199.793C168.888 195.074 163.016 186.624 163.016 172.919C163.016 158.694 168.435 152.225 174.712 144.732C175.34 143.984 175.98 143.215 176.637 142.423C177.149 141.802 177.834 141.35 178.606 141.122C191.207 137.44 200.096 130.943 204.271 127.401C206.381 125.612 207.561 123.895 207.509 122.694C207.461 121.649 206.413 120.348 204.547 119.031C202.502 117.582 198.251 116.646 194.833 115.893C192.612 115.401 190.514 114.941 188.873 114.332C187.304 113.752 186.259 112.255 186.259 110.578C186.263 78.4123 160.09 52.2429 127.924 52.2429C95.7591 52.2429 69.5897 78.4083 69.5857 110.574Z" fill="black"/>
<path d="M91.5209 118.311C88.388 118.311 85.8273 115.75 85.8273 112.617V104.079C85.8273 100.95 88.388 98.385 91.5209 98.385C94.6538 98.385 97.2145 100.946 97.2145 104.079V112.617C97.2145 115.75 94.6497 118.311 91.5209 118.311Z" fill="black"/>
<path d="M131.368 118.311C128.235 118.311 125.674 115.75 125.674 112.617V104.079C125.674 100.95 128.235 98.385 131.368 98.385C134.497 98.385 137.061 100.946 137.061 104.079V112.617C137.061 115.75 134.501 118.311 131.368 118.311Z" fill="black"/>
<defs>
<radialGradient id="paint0_radial" cx="0" cy="0" r="1" gradientUnits="userSpaceOnUse" gradientTransform="translate(128 128) rotate(90) scale(128)">
<stop stop-color="#80FFDB"/>
<stop offset="1" stop-color="#00CC92"/>
</radialGradient>
<radialGradient id="paint1_radial" cx="0" cy="0" r="1" gradientUnits="userSpaceOnUse" gradientTransform="translate(181.778 82.972) rotate(131.495) scale(130.61 120.616)">
<stop stop-color="white" stop-opacity="0"/>
<stop offset="0.822917" stop-color="white" stop-opacity="0.5"/>
<stop offset="1"/>
</radialGradient>
</defs>
</svg>
